<svg width="1200" height="800" viewBox="0 0 1200 800" fill="none" xmlns="http://www.w3.org/2000/svg">
  <defs>
    <linearGradient id="g1" x1="0" y1="0" x2="1" y2="1">
      <stop offset="0%" stop-color="#38bdf8"/>
      <stop offset="100%" stop-color="#22c55e"/>
    </linearGradient>
    <linearGradient id="g2" x1="0" y1="0" x2="1" y2="0">
      <stop offset="0%" stop-color="#0b1220"/>
      <stop offset="100%" stop-color="#0e1525"/>
    </linearGradient>
  </defs>
  <rect width="1200" height="800" fill="url(#g2)"/>
  <g opacity="0.4">
    <circle cx="1050" cy="120" r="220" fill="url(#g1)"/>
    <circle cx="200" cy="700" r="260" fill="url(#g1)"/>
  </g>
  <g stroke="#1f2a44" stroke-width="2" opacity="0.5">
    <path d="M100 620 H1100"/>
    <path d="M160 650 H1060"/>
    <path d="M220 680 H1020"/>
  </g>
  <g transform="translate(140,420)">
    <rect x="0" y="0" width="760" height="200" rx="20" fill="#0a1323" stroke="#1f2a44"/>
    <rect x="20" y="40" width="240" height="120" rx="12" fill="#0e1729" stroke="#263248"/>
    <rect x="280" y="40" width="440" height="120" rx="12" fill="#0e1729" stroke="#263248"/>
    <rect x="40" y="70" width="200" height="60" rx="8" fill="url(#g1)" opacity="0.8"/>
    <rect x="300" y="70" width="400" height="20" rx="10" fill="#23314b"/>
    <rect x="300" y="102" width="340" height="14" rx="7" fill="#23314b"/>
  </g>
  <g transform="translate(840,470)">
    <rect x="0" y="0" width="220" height="160" rx="16" fill="#0a1323" stroke="#1f2a44"/>
    <circle cx="60" cy="120" r="22" fill="#1f2a44"/>
    <circle cx="160" cy="120" r="22" fill="#1f2a44"/>
    <rect x="20" y="30" width="180" height="60" rx="10" fill="url(#g1)" opacity="0.8"/>
  </g>
</svg>

